<mxfile host="app.diagrams.net" modified="2022-04-20T02:55:53.793Z" agent="5.0 (Windows NT 10.0; Win64; x64) AppleWebKit/537.36 (KHTML, like Gecko) Chrome/96.0.4664.45 Safari/537.36" etag="VPOwe0uV06sXTOdabwdh" version="17.4.4" type="github">
  <diagram id="-VOcWj1ocziv8-YnXL26" name="Page-1">
    <mxGraphModel dx="1210" dy="620" grid="1" gridSize="10" guides="1" tooltips="1" connect="1" arrows="1" fold="1" page="1" pageScale="1" pageWidth="827" pageHeight="1169" math="0" shadow="0">
      <root>
        <mxCell id="0" />
        <mxCell id="1" parent="0" />
        <mxCell id="WtcjyZshPAkAoCMtC2D1-2" value="" style="rounded=0;whiteSpace=wrap;html=1;" vertex="1" parent="1">
          <mxGeometry x="230" y="270" width="440" height="630" as="geometry" />
        </mxCell>
        <mxCell id="WtcjyZshPAkAoCMtC2D1-28" value="" style="rounded=0;whiteSpace=wrap;html=1;fontSize=18;dashed=1;" vertex="1" parent="1">
          <mxGeometry x="270" y="610" width="360" height="200" as="geometry" />
        </mxCell>
        <mxCell id="WtcjyZshPAkAoCMtC2D1-9" value="" style="rounded=0;whiteSpace=wrap;html=1;dashed=1;fillColor=#97D077;" vertex="1" parent="1">
          <mxGeometry x="260" y="345" width="350" height="205" as="geometry" />
        </mxCell>
        <mxCell id="WtcjyZshPAkAoCMtC2D1-10" value="" style="edgeStyle=orthogonalEdgeStyle;rounded=0;orthogonalLoop=1;jettySize=auto;html=1;" edge="1" parent="1" source="WtcjyZshPAkAoCMtC2D1-1">
          <mxGeometry relative="1" as="geometry">
            <mxPoint x="450" y="340" as="targetPoint" />
          </mxGeometry>
        </mxCell>
        <mxCell id="WtcjyZshPAkAoCMtC2D1-1" value="&lt;font style=&quot;font-size: 18px&quot;&gt;SLB/Ingress&lt;/font&gt;" style="rounded=0;whiteSpace=wrap;html=1;" vertex="1" parent="1">
          <mxGeometry x="220" y="140" width="460" height="60" as="geometry" />
        </mxCell>
        <mxCell id="WtcjyZshPAkAoCMtC2D1-4" value="&lt;font style=&quot;font-size: 18px&quot;&gt;K8S集群&lt;/font&gt;" style="text;html=1;strokeColor=none;fillColor=none;align=center;verticalAlign=middle;whiteSpace=wrap;rounded=0;" vertex="1" parent="1">
          <mxGeometry x="544" y="860" width="110" height="30" as="geometry" />
        </mxCell>
        <mxCell id="WtcjyZshPAkAoCMtC2D1-5" value="Spring Cloud Gateway" style="ellipse;whiteSpace=wrap;html=1;" vertex="1" parent="1">
          <mxGeometry x="290" y="380" width="100" height="70" as="geometry" />
        </mxCell>
        <mxCell id="WtcjyZshPAkAoCMtC2D1-7" value="Spring&amp;nbsp; Cloud Application" style="ellipse;whiteSpace=wrap;html=1;" vertex="1" parent="1">
          <mxGeometry x="300" y="660" width="100" height="70" as="geometry" />
        </mxCell>
        <mxCell id="WtcjyZshPAkAoCMtC2D1-12" value="网关集群" style="text;html=1;strokeColor=none;fillColor=none;align=center;verticalAlign=middle;whiteSpace=wrap;rounded=0;" vertex="1" parent="1">
          <mxGeometry x="544" y="515" width="60" height="30" as="geometry" />
        </mxCell>
        <mxCell id="WtcjyZshPAkAoCMtC2D1-13" value="Spring&amp;nbsp; Cloud Application" style="ellipse;whiteSpace=wrap;html=1;" vertex="1" parent="1">
          <mxGeometry x="490" y="660" width="100" height="70" as="geometry" />
        </mxCell>
        <mxCell id="WtcjyZshPAkAoCMtC2D1-14" value="" style="endArrow=classic;html=1;rounded=0;entryX=0.5;entryY=0;entryDx=0;entryDy=0;" edge="1" parent="1" source="WtcjyZshPAkAoCMtC2D1-9" target="WtcjyZshPAkAoCMtC2D1-7">
          <mxGeometry width="50" height="50" relative="1" as="geometry">
            <mxPoint x="390" y="580" as="sourcePoint" />
            <mxPoint x="440" y="530" as="targetPoint" />
          </mxGeometry>
        </mxCell>
        <mxCell id="WtcjyZshPAkAoCMtC2D1-15" value="" style="endArrow=classic;html=1;rounded=0;exitX=0.614;exitY=0.441;exitDx=0;exitDy=0;exitPerimeter=0;" edge="1" parent="1" source="WtcjyZshPAkAoCMtC2D1-2" target="WtcjyZshPAkAoCMtC2D1-13">
          <mxGeometry width="50" height="50" relative="1" as="geometry">
            <mxPoint x="404" y="560" as="sourcePoint" />
            <mxPoint x="360" y="670" as="targetPoint" />
          </mxGeometry>
        </mxCell>
        <mxCell id="WtcjyZshPAkAoCMtC2D1-16" value="" style="shape=callout;whiteSpace=wrap;html=1;perimeter=calloutPerimeter;position2=0;" vertex="1" parent="1">
          <mxGeometry x="620" y="240" width="340" height="180" as="geometry" />
        </mxCell>
        <mxCell id="WtcjyZshPAkAoCMtC2D1-17" value="&lt;font style=&quot;font-size: 18px&quot;&gt;1、API动态路由&lt;br&gt;2、访问鉴权&lt;br&gt;3、服务实例动态发现&lt;br&gt;4、数据解密，验签&lt;br&gt;5、API限流，降级&lt;br&gt;6、网关内部异常统一处理&lt;br&gt;&lt;/font&gt;" style="text;html=1;strokeColor=none;fillColor=none;align=left;verticalAlign=middle;whiteSpace=wrap;rounded=0;" vertex="1" parent="1">
          <mxGeometry x="630" y="250" width="290" height="130" as="geometry" />
        </mxCell>
        <mxCell id="WtcjyZshPAkAoCMtC2D1-19" value="" style="edgeStyle=orthogonalEdgeStyle;rounded=0;orthogonalLoop=1;jettySize=auto;html=1;fontSize=18;" edge="1" parent="1" source="WtcjyZshPAkAoCMtC2D1-18" target="WtcjyZshPAkAoCMtC2D1-1">
          <mxGeometry relative="1" as="geometry" />
        </mxCell>
        <mxCell id="WtcjyZshPAkAoCMtC2D1-18" value="客户端" style="rounded=0;whiteSpace=wrap;html=1;fontSize=18;" vertex="1" parent="1">
          <mxGeometry x="390" y="10" width="120" height="60" as="geometry" />
        </mxCell>
        <mxCell id="WtcjyZshPAkAoCMtC2D1-21" value="Spring Cloud Gateway" style="ellipse;whiteSpace=wrap;html=1;" vertex="1" parent="1">
          <mxGeometry x="480" y="380" width="100" height="70" as="geometry" />
        </mxCell>
        <mxCell id="WtcjyZshPAkAoCMtC2D1-22" value="Spring Cloud Gateway" style="ellipse;whiteSpace=wrap;html=1;" vertex="1" parent="1">
          <mxGeometry x="390" y="450" width="100" height="70" as="geometry" />
        </mxCell>
        <mxCell id="WtcjyZshPAkAoCMtC2D1-32" value="服务器证书" style="text;html=1;strokeColor=none;fillColor=none;align=center;verticalAlign=middle;whiteSpace=wrap;rounded=0;dashed=1;fontSize=18;" vertex="1" parent="1">
          <mxGeometry x="570" y="180" width="100" height="10" as="geometry" />
        </mxCell>
      </root>
    </mxGraphModel>
  </diagram>
</mxfile>
